<svg data-name="Groupe 12" xmlns="http://www.w3.org/2000/svg" width="131" height="92.174" viewBox="0 0 131 92.174">
    <defs>
        <linearGradient id="yefg1h8rla" x1=".236" y1=".218" x2=".401" y2=".713" gradientUnits="objectBoundingBox">
            <stop offset="0" stop-color="#abdb59"/>
            <stop offset=".583" stop-color="#8bc34a"/>
            <stop offset="1" stop-color="#6fb13f"/>
        </linearGradient>
        <linearGradient id="z4hxf6bbwb" x1=".805" y1=".185" x2=".608" y2=".797" gradientUnits="objectBoundingBox">
            <stop offset="0" stop-color="#6ebeea"/>
            <stop offset=".298" stop-color="#4fa3d1"/>
            <stop offset="1" stop-color="#3399ca"/>
        </linearGradient>
    </defs>
    <path data-name="Union 4" d="m17.3 67.024-3.847-4.645L.767 47.428.745 47.4c-.334-.377-.827-.583-.733-1.238.067-.462.278-1.131.967-1.142l8.816-.137.027-20.151c0-.674-.011-1.151.45-1.576a2.02 2.02 0 0 1 1.477-.491l13.955.043a1.578 1.578 0 0 1 1.578 1.626l.029 17.394a19.639 19.639 0 0 0 .19 3.231h8.641c.138.03.286.092.212.2.479 0 .568.731.593 1.072a1.944 1.944 0 0 1-.563 1.25l-10.03 11.677L20 66.822a1.89 1.89 0 0 1-1.219.815 1.744 1.744 0 0 1-.194.011 1.647 1.647 0 0 1-1.287-.624zM2.176 45.168l.622-.03-.613-.009a1.186 1.186 0 0 0-.009.039zM35.6 59.915c-.249-.014-.545 0-.66-.176a.662.662 0 0 1-.03-.658l4.86-7.681c9.98-1.692 17.453-9.479 17.966-19.494v-.062c.7-11.269-8.558-21.83-20.079-21.907l-12.57-.083A3.52 3.52 0 0 1 21.531 7.4a50.4 50.4 0 0 0-.894-5.225 4.258 4.258 0 0 1-.374-1.9L20.841 0a82.282 82.282 0 0 0 8.654.981l.242.4 9.465.141c6.318.095 12.154 2.927 17 6.945a28.64 28.64 0 0 1 8.939 13.2 29.579 29.579 0 0 1 1.549 10.249 28.736 28.736 0 0 1-19.847 26.37 29.565 29.565 0 0 1-9.637 1.676q-.797 0-1.606-.047z" transform="translate(64.299 24.526)" style="fill:url(#yefg1h8rla)"/>
    <path data-name="Union 5" d="M30.618 84.488a32.186 32.186 0 0 1-16.58-4.124A28.21 28.21 0 0 1 1.371 64.745 27.315 27.315 0 0 1 9.153 35.81a29.922 29.922 0 0 1 15.492-7.316 8.462 8.462 0 0 0 1.964-.415 31.311 31.311 0 0 1 4.476-10.87A35.436 35.436 0 0 1 48.42 2.652l.085-.036A33.237 33.237 0 0 1 57.148.363a23.141 23.141 0 0 1 7.394-.134A33.036 33.036 0 0 1 80.7 6.378 27.189 27.189 0 0 1 84.209 9.3a7.987 7.987 0 0 1 1.926 2.068c2.919 3 7.244 9.921 7.936 14.538L88 25.378c-1.21-.106-2.306-.385-3.406-.572-.276-.08-.286-.331-.432-.643a28.985 28.985 0 0 0-3.186-5.823A24.987 24.987 0 0 0 66.6 9.158a1.475 1.475 0 0 0-.383-.015c-.233.011-.435.023-.535-.194-.391.164-.8-.2-1.136-.2l-5.7-.009a27.559 27.559 0 0 0-10.2 3.21 29.533 29.533 0 0 0-9.406 8.692 11.435 11.435 0 0 0-.973 1.529c-.226.457-.277 1.072-.759 1.342a32.713 32.713 0 0 0-2.62 10.526c-.117.83-1.3 1.658-1.943 1.952-6.921.713-12.178 1.4-17.639 6.334a18.884 18.884 0 0 0-.154 27.99c4.287 3.947 10 5.558 15.879 5.514l7.6-.057 20.569-.033a1.12 1.12 0 0 1 1.016.937l5.12 6.2c.373.452.568.942.169 1.38-.037.132-.155.177-.408.178l-34.4.054zm32.5-75.923a2.229 2.229 0 0 0 .243 0zM45.975 66.654a2.013 2.013 0 0 1-1.465-.491c-.461-.425-.449-.9-.45-1.576l-.027-20.151-8.816-.136c-.689-.011-.9-.676-.967-1.145-.094-.655.4-.861.733-1.238l.022-.025L47.69 26.941l3.847-4.641a1.647 1.647 0 0 1 1.29-.624 1.791 1.791 0 0 1 .194.011 1.89 1.89 0 0 1 1.219.815l6.352 7.664 10.032 11.669a1.945 1.945 0 0 1 .564 1.25c-.026.341-.114 1.07-.593 1.072.075.1-.073.165-.212.2h-8.641a19.635 19.635 0 0 0-.189 3.231l-.029 17.394a1.578 1.578 0 0 1-1.578 1.626l-13.955.043zm-9.552-22.461.613-.009-.622-.03c.003.012.007.025.009.039z" style="fill:url(#z4hxf6bbwb)"/>
</svg>
